<svg xmlns="http://www.w3.org/2000/svg"
shape-rendering="geometricPrecision"
width="4000" height="4000" viewBox="0 0 1024 1024">
  <metadata>null</metadata>

<path d="
M 535.772 577.841
C 536.025 577.059 534.609 578.008 534.434 578.139
C 533.328 578.968 532.338 579.882 531.333 580.827
C 528.476 583.511 525.706 586.333 522.763 588.922
C 514.247 596.414 505.093 603.12 495.531 609.216
C 467.499 627.087 432.917 633.059 400.217 634.367
C 385.46 634.958 370.921 633.777 356.304 631.993
C 339.487 629.94 322.501 626.792 306.548 620.968
C 286.9 613.797 269.121 603.796 252.094 591.757
C 238.92 582.443 226.764 571.451 216.671 558.839
C 213.488 554.861 210.554 550.666 207.793 546.387
C 206.894 544.992 205.776 542.046 204.088 541.612
C 204.031 541.855 203.793 541.207 203.675 540.987
C 203.461 540.589 203.253 540.176 203.063 539.766
C 202.407 538.349 201.952 536.837 201.379 535.386
C 199.719 531.18 198.262 527.036 197.076 522.668
C 195.984 518.648 194.663 514.625 193.942 510.515
C 192.326 501.303 192.164 492.071 192.075 482.776
C 194.967 486.686 196.598 491.623 198.617 496.022
C 201.066 501.358 204.005 506.516 207.196 511.441
C 221.576 533.637 240.066 553.967 261.709 569.252
C 280.898 582.803 302.361 591.785 324.806 598.227
C 373.614 612.236 427.372 612.082 473.21 588.164
C 494.788 576.905 513.218 560.464 528.18 541.403
C 536.59 530.69 544.601 519.446 550.658 507.2
C 559.199 489.932 566.997 471.952 571.963 453.309
C 573.881 446.105 575.769 438.814 577.154 431.488
C 579.729 417.858 581.706 404.215 586.076 390.99
C 590.81 376.664 599.566 363.961 608.86 352.253
C 613.018 347.016 617.474 341.888 622.554 337.524
C 633.819 327.844 645.415 319.101 659.398 313.676
C 662.42 312.504 665.522 311.707 668.651 310.891
C 669.563 310.653 671.512 309.817 672.368 309.967
C 673.389 310.145 669.968 311.444 669.6 311.615
C 667.35 312.656 665.236 313.913 663.108 315.186
C 656.507 319.135 649.788 322.727 643.962 327.831
C 627.132 342.573 614.742 363.025 607.683 384.189
C 605.172 391.715 604.204 399.583 603.091 407.4
C 600.981 422.234 600.089 437.16 597.15 451.882
C 594.288 466.214 590.144 480.233 584.503 493.718
C 578.699 507.592 571.125 520.631 564.135 533.919
C 557.934 545.706 551.438 557.29 543.456 567.98
C 540.979 571.297 538.686 574.878 535.772 577.841 Z"
opacity="1" fill="rgb(150,150,153)" fill-rule="evenodd" />
<path d="
M 285.68 512.895
C 285.082 512.574 284.604 512.356 283.927 512.289
C 281.102 512.584 277.968 513.974 275.159 514.65
C 265.575 516.957 256.005 520.069 246.75 523.468
C 243.901 524.515 240.817 525.331 237.874 526.075
C 236.677 526.378 234.539 526.53 233.548 527.268
C 233.101 527.601 233.736 528.651 233.308 529.184
C 230.626 526.642 228.606 522.814 226.496 519.782
C 221.578 512.715 217.219 505.41 213.404 497.691
C 199.227 469.009 194.527 436.07 204.124 405.142
C 208.694 390.413 217.318 377.285 226.511 365.089
C 233.198 356.219 240.236 348.292 248.457 340.817
C 256.401 333.594 264.868 326.949 274.205 321.592
C 278.27 319.259 282.346 316.621 286.813 315.166
C 286.759 316.546 284.809 318.202 284.06 319.328
C 281.833 322.68 279.723 326.042 277.857 329.61
C 271.601 341.571 265.696 354.646 262.808 367.88
C 261.175 375.364 259.657 382.872 258.888 390.499
C 258.021 399.099 258.234 407.895 258.576 416.511
C 259.403 437.337 262.527 458.36 269.32 478.147
C 272.336 486.933 276.213 495.572 280.484 503.82
C 282.05 506.844 284.391 509.78 285.68 512.895 Z"
opacity="1" fill="rgb(48,139,33)" fill-rule="evenodd" />
<path d="
M 535.772 577.841
C 533.21 583.063 528.241 587.28 524.405 591.532
C 513.203 602.79 501.819 613.361 488.647 622.346
C 472.892 633.092 455.549 640.894 437.465 646.742
C 407.297 656.497 375.822 662.16 344.227 656.101
C 324.601 652.338 305.584 645.195 288.133 635.452
C 269.662 625.139 253.948 611.465 239.639 596.019
C 229.515 585.09 220.627 573.14 213.187 560.236
C 209.73 554.24 206.377 548.148 204.088 541.612
C 205.776 542.046 206.894 544.992 207.793 546.387
C 210.554 550.666 213.488 554.861 216.671 558.839
C 226.764 571.451 238.92 582.443 252.094 591.757
C 269.121 603.796 286.9 613.797 306.548 620.968
C 322.501 626.792 339.487 629.94 356.304 631.993
C 370.921 633.777 385.46 634.958 400.217 634.367
C 432.917 633.059 467.499 627.087 495.531 609.216
C 505.093 603.12 514.247 596.414 522.763 588.922
C 525.706 586.333 528.476 583.511 531.333 580.827
C 532.338 579.882 533.328 578.968 534.434 578.139
C 534.609 578.008 536.025 577.059 535.772 577.841 Z"
opacity="1" fill="rgb(13,65,6)" fill-rule="evenodd" />
<path d="
M 285.68 512.895
C 287.024 514.536 287.982 516.647 289.128 518.444
C 291.02 521.413 293.132 524.186 295.275 526.977
C 304.804 539.384 317.396 551.036 330.709 559.249
C 338.112 563.816 346.356 567.551 354.751 569.875
C 367.628 573.439 381.191 574.632 394.365 571.998
C 403.86 570.099 412.569 565.629 420.857 560.788
C 439.26 550.041 454.875 533.423 466.283 515.556
C 475.904 500.488 481.237 483.201 485.944 466.129
C 494.101 436.544 498.59 406.444 502.132 376.029
C 504.186 358.395 504.775 340.539 507.168 322.97
C 508.382 314.054 509.742 304.94 516.555 298.388
C 528.968 286.45 546.417 288.55 562.244 288.396
C 595.352 288.074 628.397 287.429 661.502 287.769
C 677.903 287.938 694.298 288.374 710.7 288.412
C 716.129 288.424 721.564 288.805 727 288.859
C 728.958 288.878 730.912 288.916 732.867 289.05
C 733.452 289.09 734.037 289.114 734.622 289.162
C 734.623 289.162 735.621 289.327 735.615 289.331
C 735.028 289.785 732.744 289.478 731.994 289.522
C 728.801 289.707 725.603 289.67 722.411 289.848
C 711.17 290.474 699.913 291.796 688.854 293.906
C 658.132 299.767 628.899 315.279 608.114 338.867
C 593.554 355.392 582.244 375.333 576.089 396.533
C 572.047 410.452 570.889 425.096 567.579 439.192
C 564.497 452.32 559.957 465.363 555.289 477.998
C 553.269 483.468 551.611 489.069 549.441 494.483
C 545.743 503.709 540.97 512.82 535.738 521.261
C 527.663 534.287 517.892 546.168 506.211 556.123
C 497.483 563.561 487.042 569.75 476.916 575.065
C 452.421 587.922 425.566 596.449 397.726 597.393
C 364.693 598.514 331.329 590.823 301.213 577.599
C 282.361 569.321 263.781 558.599 248.401 544.79
C 244.287 541.096 240.298 537.331 236.698 533.124
C 235.601 531.842 234.155 530.646 233.308 529.184
C 233.736 528.651 233.101 527.601 233.548 527.268
C 234.539 526.53 236.677 526.378 237.874 526.075
C 240.817 525.331 243.901 524.515 246.75 523.468
C 256.005 520.069 265.575 516.957 275.159 514.65
C 277.968 513.974 281.102 512.584 283.927 512.289
C 284.604 512.356 285.082 512.574 285.68 512.895 Z"
opacity="1" fill="rgb(44,135,30)" fill-rule="evenodd" />
<path d="
M 486.794 390.481
C 486.408 390.1 486.471 389.333 485.91 389.104
C 484.803 388.653 482.867 388.931 481.61 388.615
C 478.998 387.958 476.378 387.02 473.828 386.151
C 460.977 381.773 447.256 378.374 433.687 377.352
C 429.893 377.066 426.03 376.717 422.268 376.181
C 421.118 376.018 419.007 375.205 418.081 376.259
C 408.716 372.075 397.629 370.997 387.535 370.072
C 366.055 368.102 344.504 372.433 325.657 382.993
C 315.58 388.639 305.938 396.087 299.226 405.622
C 295.818 410.463 293.393 416.089 291.272 421.58
C 287.161 432.219 284.399 443.939 283.811 455.343
C 283.512 461.124 283.434 466.71 283.805 472.501
C 283.946 474.694 284.123 476.888 284.244 479.082
C 284.265 479.453 284.491 481.294 284.127 481.238
C 281.408 475.292 280.616 468.257 279.66 461.852
C 278.172 451.891 276.858 442.059 276.074 432.022
C 275.156 420.265 273.816 408.306 274.456 396.493
C 276.039 367.261 284.708 334.486 306.59 313.668
C 312.216 308.315 318.935 304.294 325.935 301.032
C 370.682 280.18 426.159 288.416 464.065 319.554
C 471.388 325.569 477.755 332.489 483.954 339.627
C 486.289 342.316 490.136 345.731 491.306 349.144
C 491.777 350.517 491.083 352.123 490.842 353.474
C 490.457 355.63 490.376 357.782 490.212 359.96
C 489.449 370.09 488.134 380.411 486.794 390.481 Z"
opacity="1" fill="rgb(36,114,24)" fill-rule="evenodd" />
<path d="
M 486.794 390.481
C 486.397 395.856 485.188 401.177 484.443 406.511
C 482.312 421.768 480.197 436.985 477.529 452.162
C 476.662 457.096 475.684 461.939 474.44 466.792
C 474.135 467.979 473.908 469.211 473.55 470.379
C 473.48 470.607 473.417 471.27 473.154 471.339
C 472.074 468.397 472.849 464.179 472.657 461.041
C 472.267 454.656 471.062 448.325 469.643 442.099
C 467.958 434.703 465.234 427.533 462.438 420.502
C 460.378 415.319 458.118 409.96 454.951 405.335
C 445.931 392.157 432.671 382.457 418.081 376.259
C 419.007 375.205 421.118 376.018 422.268 376.181
C 426.03 376.717 429.893 377.066 433.687 377.352
C 447.256 378.374 460.977 381.773 473.828 386.151
C 476.378 387.02 478.998 387.958 481.61 388.615
C 482.867 388.931 484.803 388.653 485.91 389.104
C 486.471 389.333 486.408 390.1 486.794 390.481 Z"
opacity="1" fill="rgb(17,74,10)" fill-rule="evenodd" />
<path d="
M 743.796 486.248
C 750.059 487.148 756.712 486.852 762.992 486.397
C 768.951 485.965 774.905 485.535 780.811 484.579
C 788.307 483.366 795.671 481.484 803.13 480.088
C 806.074 479.538 809.001 479.558 811.916 479.068
C 812.718 478.991 813.271 479.01 813.895 479.538
C 814.709 481.625 815.99 483.508 816.837 485.582
C 820.935 495.62 825.295 507.064 824.942 518.091
C 824.69 525.945 822.371 533.807 819.455 541.059
C 814.488 553.411 808.097 564.429 799.971 574.995
C 790.964 586.708 780.629 597.087 769.783 607.08
C 750.091 625.222 726.993 639.5 701.244 647.187
C 687.402 651.318 673.002 653.881 658.628 655.184
C 649.326 656.027 639.924 656.015 630.64 656.943
C 623.352 657.672 615.892 657.68 608.568 657.908
C 595.52 658.314 582.495 658.979 569.447 659.387
C 543.141 660.208 516.834 660.256 490.499 660.211
C 483.833 660.2 477.163 660.157 470.497 660.218
C 468.324 660.238 464.67 660.954 462.952 659.423
C 464.152 658.018 466.664 657.52 468.369 656.829
C 472.211 655.271 476.022 653.438 479.707 651.54
C 489.639 646.424 499.274 639.781 507.928 632.719
C 522.556 620.785 535.059 605.615 546.255 590.497
C 549.102 586.652 551.776 582.668 554.272 578.587
C 555.511 576.563 556.452 574.254 558.054 572.484
C 559.276 572.022 560.803 572.274 562.092 572.265
C 564.896 572.246 567.701 572.252 570.506 572.254
C 579.672 572.261 588.838 572.226 598.004 572.242
C 608.837 572.26 619.67 572.247 630.503 572.249
C 640.82 572.252 651.128 572.318 661.363 570.83
C 684.619 567.45 709.07 557.591 723.846 538.665
C 731.029 529.464 736.638 518.131 739.518 506.813
C 740.65 502.365 741.702 497.912 742.509 493.391
C 742.913 491.122 742.784 488.331 743.796 486.248 Z"
opacity="1" fill="rgb(37,119,24)" fill-rule="evenodd" />
<path d="
M 629.953 372.578
C 631.222 368.698 632.162 364.742 633.741 360.957
C 637.556 351.814 643.3 342.836 650.126 335.633
C 670.35 314.294 701.782 307.674 729.89 314.211
C 745.718 317.892 760.314 326.039 772.652 336.496
C 781.37 343.884 789.061 352.681 795.937 361.779
C 809.647 379.919 820.758 400.575 826.687 422.643
C 831.7 441.305 832.966 460.448 833.661 479.618
C 832.161 477.939 831.307 475.659 830.119 473.762
C 826.911 468.638 824.215 463.208 820.964 458.099
C 813.914 447.021 805.159 436.767 795.743 427.631
C 787.056 419.203 777.701 411.016 767.355 404.652
C 760.806 400.623 753.602 397.409 746.588 394.29
C 726.851 385.515 706.561 379.632 685.146 376.664
C 666.702 374.107 648.169 374.81 629.624 374.594
C 629.686 373.916 629.794 373.239 629.953 372.578 Z"
opacity="1" fill="rgb(57,161,39)" fill-rule="evenodd" />
<path d="
M 813.895 479.538
C 813.271 479.01 812.718 478.991 811.916 479.068
C 809.001 479.558 806.074 479.538 803.13 480.088
C 795.671 481.484 788.307 483.366 780.811 484.579
C 774.905 485.535 768.951 485.965 762.992 486.397
C 756.712 486.852 750.059 487.148 743.796 486.248
C 743.096 485.021 743.843 482.199 743.885 480.798
C 744.018 476.327 744.11 471.894 743.743 467.431
C 742.811 456.127 739.219 443.868 734.293 433.674
C 729.389 423.529 722.376 414.202 713.593 407.061
C 710.715 404.721 707.882 402.263 704.627 400.446
C 702.728 399.386 699.626 398.558 698.484 396.666
C 701.973 396.527 706.033 398.561 709.28 399.754
C 716.827 402.525 724.445 405.118 731.779 408.441
C 751.18 417.23 768.865 428.385 784.866 442.464
C 796.591 452.78 807.495 465.121 813.895 479.538 Z"
opacity="1" fill="rgb(13,66,4)" fill-rule="evenodd" />

</svg>