<svg version="1.2" xmlns="http://www.w3.org/2000/svg" viewBox="0 0 86 104" width="86" height="104"><defs><linearGradient id="P" gradientUnits="userSpaceOnUse"/><linearGradient id="g1" x2="1" href="#P" gradientTransform="matrix(0,24,-64,0,2,2)"><stop stop-color="#95d5b2"/><stop offset="1" stop-color="#40916c"/></linearGradient></defs><style>.a{fill:url(#g1)}.b{fill:#2d6a4f}.c{fill:#52b788}.d{fill:#1b4332}.e{fill:#40916c}.f{fill:#74c69d}.g{opacity:.6;fill:none;stroke:#c8d8dc}.h{opacity:.8;fill:#a8b8c0}.i{opacity:.6;fill:#74c69d}</style><path fill-rule="evenodd" class="a" d="m34 2l32 24h-64z"/><path fill-rule="evenodd" class="b" d="m2 26l32-24v68z"/><path fill-rule="evenodd" class="c" d="m66 26l-32-24v68z"/><path fill-rule="evenodd" class="d" d="m2 26l32 44-20 32z"/><path fill-rule="evenodd" class="e" d="m66 26l-32 44 20 32z"/><path fill-rule="evenodd" class="f" d="m14 102l20-32 20 32z"/><path fill-rule="evenodd" class="g" d="m34 2l-32 24 12 76 20-32"/><path fill-rule="evenodd" class="g" d="m34 2l32 24-12 76-20-32"/><path fill-rule="evenodd" class="h" d="m72 19c-2.8 0-5-2.2-5-5 0-2.8 2.2-5 5-5 2.8 0 5 2.2 5 5 0 2.8-2.2 5-5 5z"/><path fill-rule="evenodd" class="i" d="m81 29c-1.7 0-3-1.3-3-3 0-1.7 1.3-3 3-3 1.7 0 3 1.3 3 3 0 1.7-1.3 3-3 3z"/></svg>