<svg width="32" height="32" viewBox="0 0 32 32" fill="none" xmlns="http://www.w3.org/2000/svg" role="img" aria-label="TAS Webworks">
  <defs>
    <linearGradient id="g1" gradientUnits="userSpaceOnUse" gradientTransform="matrix(0,24,-64,0,2,2)">
      <stop stop-color="#95d5b2" />
      <stop offset="1" stop-color="#40916c" />
    </linearGradient>
  </defs>
  <rect width="32" height="32" rx="7" fill="#0a0a0a" />
  <g transform="translate(4.8,2.5) scale(0.26)">
    <path fill-rule="evenodd" fill="url(#g1)" d="m34 2l32 24h-64z" />
    <path fill-rule="evenodd" fill="#2d6a4f" d="m2 26l32-24v68z" />
    <path fill-rule="evenodd" fill="#52b788" d="m66 26l-32-24v68z" />
    <path fill-rule="evenodd" fill="#1b4332" d="m2 26l32 44-20 32z" />
    <path fill-rule="evenodd" fill="#40916c" d="m66 26l-32 44 20 32z" />
    <path fill-rule="evenodd" fill="#74c69d" d="m14 102l20-32 20 32z" />
    <path fill-rule="evenodd" opacity=".6" fill="none" stroke="#c8d8dc" d="m34 2l-32 24 12 76 20-32" />
    <path fill-rule="evenodd" opacity=".6" fill="none" stroke="#c8d8dc" d="m34 2l32 24-12 76-20-32" />
    <path fill-rule="evenodd" opacity=".8" fill="#a8b8c0" d="m72 19c-2.8 0-5-2.2-5-5 0-2.8 2.2-5 5-5 2.8 0 5 2.2 5 5 0 2.8-2.2 5-5 5z" />
    <path fill-rule="evenodd" opacity=".6" fill="#74c69d" d="m81 29c-1.7 0-3-1.3-3-3 0-1.7 1.3-3 3-3 1.7 0 3 1.3 3 3 0 1.7-1.3 3-3 3z" />
  </g>
</svg>
